<svg width="30" height="30" viewBox="0 0 30 30" fill="none" xmlns="http://www.w3.org/2000/svg">
<path d="M25.475 10.7124L23.9375 13.0249C24.679 14.5037 25.042 16.1434 24.994 17.7971C24.946 19.4507 24.4885 21.0666 23.6625 22.4999H6.3375C5.26396 20.6375 4.81912 18.4788 5.06893 16.3437C5.31873 14.2087 6.24989 12.2109 7.72435 10.6467C9.19881 9.08244 11.1381 8.03496 13.2547 7.65953C15.3713 7.2841 17.5525 7.6007 19.475 8.56241L21.7875 7.02491C19.4331 5.51518 16.6404 4.83866 13.8561 5.10358C11.0718 5.36849 8.45681 6.55953 6.42937 8.48617C4.40193 10.4128 3.0792 12.9637 2.67277 15.7309C2.26634 18.4981 2.79969 21.3216 4.1875 23.7499C4.40564 24.1278 4.71886 24.4419 5.09604 24.6612C5.47322 24.8805 5.90122 24.9973 6.3375 24.9999H23.65C24.0905 25.0017 24.5237 24.887 24.9056 24.6675C25.2876 24.448 25.6047 24.1314 25.825 23.7499C26.9767 21.7548 27.5547 19.4802 27.4952 17.1773C27.4356 14.8745 26.7408 12.6328 25.4875 10.6999L25.475 10.7124ZM13.2375 19.2624C13.4697 19.4948 13.7454 19.6792 14.0489 19.8051C14.3524 19.9309 14.6777 19.9956 15.0063 19.9956C15.3348 19.9956 15.6601 19.9309 15.9636 19.8051C16.2671 19.6792 16.5428 19.4948 16.775 19.2624L23.85 8.64991L13.2375 15.7249C13.0051 15.9571 12.8207 16.2328 12.6949 16.5363C12.569 16.8398 12.5043 17.1651 12.5043 17.4937C12.5043 17.8222 12.569 18.1475 12.6949 18.451C12.8207 18.7545 13.0051 19.0302 13.2375 19.2624Z" fill="#F9BF43"/>
</svg>
