<svg width="50" height="50" viewBox="0 0 50 50" fill="none" xmlns="http://www.w3.org/2000/svg">
<g clip-path="url(#clip0_59825_23944)">
<path d="M46.1333 0H3.33333C1.49238 0 0 1.49238 0 3.33333V46.1333C0 47.9743 1.49238 49.4667 3.33333 49.4667H46.1333C47.9743 49.4667 49.4667 47.9743 49.4667 46.1333V3.33333C49.4667 1.49238 47.9743 0 46.1333 0Z" fill="#8B8B8B"/>
<path d="M44.0658 2.06665H5.39913C3.55818 2.06665 2.0658 3.55903 2.0658 5.39998V44.0667C2.0658 45.9076 3.55818 47.4 5.39913 47.4H44.0658C45.9067 47.4 47.3991 45.9076 47.3991 44.0667V5.39998C47.3991 3.55903 45.9067 2.06665 44.0658 2.06665Z" fill="white"/>
<path d="M23.6628 16.3335H47.3962" stroke="#5C5C5C"/>
<path d="M2.0658 32.9998H47.3991" stroke="#5C5C5C"/>
<path d="M23.7981 2.06665V47.4" stroke="#5C5C5C"/>
<path d="M36.9967 2.06665V47.4" stroke="#5C5C5C"/>
<path d="M13.7996 33.3333V47.3999" stroke="#5C5C5C"/>
</g>
<defs>
<clipPath id="clip0_59825_23944">
<rect width="50" height="50" fill="white"/>
</clipPath>
</defs>
</svg>
